# xmcd
# Copyright (C) 1995-1998 Ti Kan
#
# Track frame offsets:
#       150
#       17150
#       33262
#       46925
#       67110
#       82987
#       102262
#       117787
#       132112
#       144975
#       162712
#       173512
#       189037
#       202912
#       217237
#
# Disc length: 3077 seconds
#
# Revision: 0
# Processed by: cddbd v1.4PL0 Copyright (c) Steve Scherf et al.
# Submitted via: CD-Transfer v1.0
#
DISCID=c70c030f
DTITLE=Jasmin - Tagebuech
DYEAR=1900
DGENRE=
TTITLE0=Schuel
TTITLE1=Foto-Outomat
TTITLE2=Weis...
TTITLE3=Flüge
TTITLE4=Truurig
TTITLE5=Delphin
TTITLE6=Wysses Zimmer
TTITLE7=Handy
TTITLE8=Tagebuech
TTITLE9=Film ohni Farb
TTITLE10=Aleini
TTITLE11=Versuechig
TTITLE12=Ma Vie à Moi
TTITLE13=Gernegross
TTITLE14=Vorwärts
EXTD=
EXTT0=
EXTT1=
EXTT2=
EXTT3=
EXTT4=
EXTT5=
EXTT6=
EXTT7=
EXTT8=
EXTT9=
EXTT10=
EXTT11=
EXTT12=
EXTT13=
EXTT14=
PLAYORDER=
